<?xml version="1.0" standalone="no"?>
<!DOCTYPE svg PUBLIC "-//W3C//DTD SVG 20010904//EN"
 "http://www.w3.org/TR/2001/REC-SVG-20010904/DTD/svg10.dtd">
<svg version="1.0" xmlns="http://www.w3.org/2000/svg"
 width="512.000000pt" height="512.000000pt" viewBox="0 0 512.000000 512.000000"
 preserveAspectRatio="xMidYMid meet">

<g transform="translate(0.000000,512.000000) scale(0.100000,-0.100000)"
fill="#000000" stroke="none">
<path d="M2125 5101 c-22 -10 -55 -34 -72 -54 -103 -117 -44 -323 100 -354 34
-7 34 -21 2 -149 -49 -193 -146 -356 -421 -705 -91 -116 -195 -253 -230 -305
-163 -240 -246 -488 -245 -731 l0 -112 -32 5 c-170 30 -387 88 -387 104 0 5
26 14 57 21 31 7 65 21 75 31 27 27 23 80 -7 108 l-25 24 -75 -17 c-99 -21
-191 -63 -215 -98 -46 -63 -8 -144 89 -193 86 -44 363 -116 530 -138 19 -2 28
-16 51 -79 70 -193 229 -393 425 -535 140 -101 175 -144 175 -213 l0 -30 -463
-3 -463 -3 -42 -28 c-23 -15 -54 -46 -69 -69 -26 -38 -28 -51 -31 -154 l-4
-113 -368 -3 c-418 -3 -399 0 -450 -89 -23 -41 -25 -52 -24 -179 1 -110 6
-153 27 -232 109 -416 448 -725 872 -793 135 -22 3175 -22 3310 0 461 75 815
429 890 890 28 168 17 278 -32 344 -46 60 -55 61 -447 61 l-354 0 -4 113 c-3
104 -5 117 -31 155 -15 23 -46 54 -69 69 l-42 28 -465 5 -466 5 4 35 c6 68 41
108 166 195 87 61 246 218 308 306 122 173 187 367 187 561 0 64 3 88 13 88
78 0 405 -52 436 -70 13 -7 -28 -23 -122 -46 -55 -13 -73 -71 -36 -118 26 -33
62 -34 155 -5 137 42 184 81 184 151 0 84 -47 134 -162 170 -69 21 -262 52
-399 63 l-87 7 -17 66 c-10 36 -31 99 -46 138 -73 190 -140 292 -451 686 -217
274 -316 448 -364 634 -33 132 -32 138 14 152 45 14 100 64 119 112 36 85 6
214 -61 264 -59 44 -79 46 -485 46 -352 0 -390 -2 -426 -19z m825 -151 c43
-43 14 -106 -53 -117 -29 -4 -53 -17 -76 -40 l-34 -34 6 -92 c8 -117 35 -215
98 -347 63 -133 139 -246 329 -490 182 -233 270 -364 349 -519 103 -204 141
-343 141 -520 0 -186 -67 -369 -195 -527 -75 -95 -132 -148 -266 -250 -141
-107 -190 -175 -205 -283 l-7 -51 -477 0 -478 0 -10 59 c-21 117 -72 187 -208
283 -163 114 -285 250 -364 402 -23 43 -39 81 -36 83 2 3 69 0 148 -6 335 -24
321 -24 351 -1 20 16 27 30 27 56 0 57 -24 71 -131 78 -279 19 -395 29 -418
35 -26 7 -26 8 -29 122 -3 128 7 202 44 316 63 196 185 394 449 733 277 355
363 508 410 732 36 170 7 244 -103 263 -25 4 -46 14 -52 25 -15 28 -12 71 7
92 15 17 40 18 390 18 360 0 374 -1 393 -20z m1150 -3440 c17 -17 20 -33 20
-110 l0 -90 -1560 0 -1560 0 0 90 c0 147 -208 130 1560 130 1507 0 1520 0
1540 -20z m863 -470 c-6 -410 -292 -760 -709 -867 -65 -17 -175 -18 -1694 -18
-1518 0 -1629 1 -1694 18 -168 43 -300 115 -423 231 -178 168 -275 376 -290
623 -3 55 -3 108 0 117 6 15 214 16 2409 14 l2403 -3 -2 -115z"/>
<path d="M4000 3238 c-46 -49 -6 -128 65 -128 55 0 169 -19 278 -46 100 -25
118 -24 146 10 18 22 17 73 -3 95 -19 21 -134 52 -277 76 -135 22 -184 20
-209 -7z"/>
<path d="M655 2515 c-32 -31 -33 -75 -2 -102 46 -44 357 -133 413 -119 47 12
66 95 29 126 -7 6 -60 22 -117 35 -57 12 -140 37 -183 54 -97 37 -109 38 -140
6z"/>
</g>
</svg>
