<?xml version="1.0" standalone="no"?>
<!DOCTYPE svg PUBLIC "-//W3C//DTD SVG 20010904//EN"
 "http://www.w3.org/TR/2001/REC-SVG-20010904/DTD/svg10.dtd">
<svg version="1.0" xmlns="http://www.w3.org/2000/svg"
 width="512.000000pt" height="512.000000pt" viewBox="0 0 512.000000 512.000000"
 preserveAspectRatio="xMidYMid meet">

<g transform="translate(0.000000,512.000000) scale(0.100000,-0.100000)"
fill="#000000" stroke="none">
<path d="M2415 5113 c-283 -19 -601 -123 -860 -283 -399 -245 -714 -674 -830
-1130 -77 -303 -83 -614 -15 -896 10 -43 17 -81 15 -84 -2 -4 -115 -73 -251
-156 -282 -170 -352 -227 -408 -333 -89 -169 -85 -330 10 -425 91 -91 260 -90
348 3 31 34 66 100 66 127 0 78 -2 76 222 200 116 64 214 112 218 107 4 -4 35
-48 68 -98 268 -394 699 -682 1172 -781 170 -35 352 -50 497 -38 66 5 134 6
149 3 16 -4 292 -7 614 -8 566 -1 586 -2 630 -22 60 -27 98 -64 126 -124 42
-89 28 -185 -39 -261 -76 -86 52 -78 -1337 -84 l-1235 -5 -56 -23 c-123 -49
-207 -131 -250 -240 -18 -44 -23 -78 -23 -152 -1 -87 2 -101 31 -162 38 -81
104 -155 171 -191 109 -59 55 -57 1385 -57 l1218 0 -3 83 -3 82 -1235 5 -1235
5 -40 22 c-175 94 -168 349 12 439 37 18 86 19 1273 24 1375 6 1260 -1 1373
74 260 173 231 575 -50 708 -88 42 -149 48 -493 48 l-305 0 107 58 c675 360
1074 1102 997 1853 -21 208 -75 411 -159 597 -23 52 -40 95 -38 96 1 2 164 92
360 201 197 109 375 213 397 232 51 43 100 142 108 215 6 58 -9 142 -34 192
-20 39 -88 112 -129 137 -78 48 -193 61 -279 31 -27 -10 -222 -122 -432 -250
-210 -127 -387 -232 -392 -232 -5 0 -38 24 -73 54 -375 318 -858 473 -1363
439z m65 -1648 l0 -1485 80 0 80 0 0 1485 0 1485 33 -1 c17 0 73 -6 122 -12
l90 -12 3 -1701 2 -1702 -22 -6 c-122 -32 -228 85 -228 251 l0 53 -81 0 -81 0
4 -94 c3 -83 8 -102 39 -165 l35 -71 -70 0 c-63 0 -150 10 -228 26 l-28 6 0
1509 0 1509 -85 0 -85 0 0 -1489 0 -1490 -57 20 c-32 10 -86 31 -120 46 l-63
26 0 1567 0 1568 43 17 c47 20 191 75 195 75 1 0 2 -38 2 -85 l0 -85 85 0 85
0 0 105 c0 100 1 105 23 110 32 8 145 22 190 24 l37 1 0 -1485z m2397 1459
c48 -36 66 -70 71 -132 5 -66 -9 -101 -55 -143 -15 -15 -287 -170 -603 -344
-316 -175 -630 -349 -698 -386 l-122 -68 2 171 3 171 460 279 c253 154 534
324 625 379 l165 100 62 -3 c43 -3 71 -10 90 -24z m-1771 -58 c22 -7 74 -28
117 -46 l77 -32 0 -1567 0 -1567 -62 -27 c-35 -14 -89 -36 -120 -46 l-58 -20
0 1660 c0 912 2 1659 4 1659 2 0 21 -6 42 -14z m-1456 -404 l0 -144 -32 19
c-18 10 -79 45 -135 78 -57 32 -103 62 -103 65 0 10 49 54 125 113 l70 55 37
-22 38 -21 0 -143z m2050 63 c0 -4 -217 -135 -224 -135 -3 0 -6 48 -6 108 l0
107 37 21 38 22 77 -60 c43 -33 78 -62 78 -63z m-2243 -286 l193 -111 0 -144
0 -143 -182 106 c-101 58 -222 128 -270 155 -49 28 -88 54 -88 57 0 19 129
189 144 190 5 1 96 -49 203 -110z m-159 -384 c144 -82 261 -153 262 -157 0
-11 -230 -139 -244 -136 -7 2 -99 52 -203 113 l-191 110 23 60 c31 83 74 167
84 163 4 -2 125 -70 269 -153z m2825 118 c8 -21 29 -71 46 -112 17 -41 30 -75
29 -76 -2 -1 -37 -21 -78 -45 -41 -24 -77 -44 -78 -46 -5 -3 67 -132 76 -138
4 -2 33 11 65 30 32 19 60 34 62 34 3 0 29 -148 39 -222 l5 -37 -402 -232
c-221 -127 -405 -234 -409 -236 -5 -2 -8 60 -8 139 l0 143 260 149 259 150
-31 55 c-17 31 -36 62 -43 69 -15 17 3 25 -247 -120 -103 -59 -190 -108 -193
-108 -3 0 -5 66 -5 148 l1 147 312 172 c172 95 315 172 318 173 3 0 13 -17 22
-37z m-3105 -433 c72 -41 132 -77 132 -80 0 -3 -54 -36 -121 -74 l-120 -69
-37 21 c-32 18 -37 26 -34 54 5 66 35 229 42 226 3 -2 66 -37 138 -78z m620
-266 c-17 -16 -760 -466 -763 -462 -5 6 -34 184 -37 227 l-3 43 405 234 405
235 3 -133 c2 -97 -1 -135 -10 -144z m2617 -174 c31 -19 32 -23 27 -66 -2 -25
-12 -84 -21 -130 l-16 -84 -128 74 c-71 40 -133 78 -138 83 -9 9 203 141 230
142 7 1 28 -8 46 -19z m-2605 -138 l0 -118 -660 -365 -659 -364 -1 -73 c0 -74
-10 -107 -39 -129 -25 -19 -65 -15 -96 9 -26 20 -27 24 -23 93 5 80 45 169 99
221 26 26 1353 841 1372 843 4 1 7 -52 7 -117z m2354 -194 l194 -111 -24 -64
c-13 -35 -36 -87 -50 -114 l-25 -50 -62 35 c-223 125 -470 273 -470 281 1 11
212 134 231 135 7 0 100 -50 206 -112z m-2354 -286 l0 -168 -193 -112 c-107
-62 -198 -112 -203 -112 -12 0 -86 95 -141 180 l-42 64 102 57 c56 31 183 102
282 157 99 55 183 101 188 101 4 1 7 -75 7 -167z m2113 -51 c136 -79 247 -146
247 -149 0 -18 -130 -191 -144 -192 -4 0 -95 50 -202 112 l-194 112 0 144 0
144 23 -14 c12 -8 133 -79 270 -157z m-2113 -454 l0 -144 -40 -18 -39 -18 -38
28 c-73 55 -154 128 -151 137 3 7 256 158 266 158 1 0 2 -65 2 -143z m1963 63
c70 -40 127 -76 127 -80 0 -8 -69 -68 -148 -129 l-43 -34 -40 18 -39 18 0 144
c0 79 3 142 8 140 4 -2 64 -37 135 -77z"/>
<path d="M4217 164 c-4 -4 -7 -43 -7 -86 l0 -78 85 0 86 0 -3 82 -3 83 -75 3
c-42 1 -79 0 -83 -4z"/>
</g>
</svg>
