<?xml version="1.0" standalone="no"?>
<!DOCTYPE svg PUBLIC "-//W3C//DTD SVG 20010904//EN"
 "http://www.w3.org/TR/2001/REC-SVG-20010904/DTD/svg10.dtd">
<svg version="1.0" xmlns="http://www.w3.org/2000/svg"
 width="512.000000pt" height="512.000000pt" viewBox="0 0 512.000000 512.000000"
 preserveAspectRatio="xMidYMid meet">

<g transform="translate(0.000000,512.000000) scale(0.100000,-0.100000)"
fill="#000000" stroke="none">
<path d="M2075 5105 c-103 -23 -143 -42 -391 -186 -304 -175 -315 -184 -350
-254 -50 -103 -45 -125 95 -476 67 -168 132 -319 144 -336 12 -16 103 -121
202 -232 99 -111 181 -206 183 -211 2 -5 -221 -10 -535 -12 l-538 -3 -177 -72
c-284 -117 -589 -261 -626 -296 -19 -18 -43 -50 -55 -72 -22 -40 -22 -43 -22
-675 0 -632 0 -635 22 -675 46 -85 110 -126 226 -145 36 -5 146 -39 245 -75
99 -35 210 -69 247 -76 88 -15 270 -7 359 16 152 40 391 183 539 324 57 54
114 98 150 115 74 36 165 120 201 187 16 28 57 79 91 113 68 67 100 133 111
230 l7 54 56 7 c118 14 346 57 371 70 101 52 146 181 100 284 l-20 43 35 39
c68 76 81 153 50 302 -40 195 -116 353 -283 594 -124 179 -142 214 -142 268 0
104 108 197 210 181 47 -7 198 -71 223 -94 17 -15 54 -67 188 -262 37 -54 38
-56 27 -105 -7 -35 -22 -63 -50 -93 -71 -78 -77 -139 -22 -256 62 -134 77
-210 77 -386 1 -124 -4 -176 -22 -260 -30 -139 -103 -357 -189 -560 -39 -91
-102 -240 -140 -331 -39 -91 -96 -243 -128 -337 l-57 -172 -279 0 -279 0 -24
-25 c-34 -33 -34 -87 0 -120 l24 -25 262 0 261 0 -6 -43 c-3 -23 -8 -81 -12
-129 l-7 -88 -249 0 -249 0 -24 -25 c-37 -36 -34 -86 6 -119 l31 -26 253 0
253 0 15 -62 c9 -35 22 -81 30 -103 l14 -40 -43 -42 c-122 -123 -88 -322 70
-406 l41 -22 1180 0 1180 0 41 22 c96 51 139 122 139 228 0 95 -36 164 -114
218 l-24 16 21 73 c37 127 45 201 39 367 -6 177 -25 280 -87 473 -22 69 -40
128 -40 132 0 3 36 6 80 6 73 0 83 3 105 25 32 31 32 75 1 112 -23 27 -28 28
-142 33 l-118 5 -52 123 -52 122 71 0 c40 0 83 6 97 13 51 26 62 83 26 132
-13 18 -29 21 -142 25 l-127 5 -58 150 c-115 299 -144 431 -144 655 0 185 15
256 80 398 20 42 35 90 35 111 -1 175 -245 282 -684 300 l-160 6 -12 67 c-16
84 -44 147 -95 216 -23 29 -39 56 -36 58 2 3 101 -15 218 -40 336 -70 394 -79
473 -73 134 10 226 61 270 149 61 122 15 267 -104 328 -48 24 -300 103 -860
270 -261 78 -637 193 -835 255 -198 63 -384 119 -414 125 -72 13 -183 11 -256
-5z m266 -174 c41 -11 207 -62 369 -114 162 -52 502 -156 755 -232 680 -202
885 -267 911 -288 27 -21 33 -72 12 -100 -18 -23 -92 -47 -147 -47 -41 0 -267
43 -656 126 -85 18 -140 25 -159 20 -63 -16 -109 -101 -86 -161 6 -15 47 -74
91 -132 79 -101 119 -178 119 -227 0 -22 -5 -25 -62 -31 -67 -7 -228 -32 -265
-42 -20 -4 -23 -1 -23 21 0 44 -24 89 -127 239 -150 219 -162 229 -330 298
-121 49 -195 59 -278 34 -202 -58 -314 -267 -246 -460 11 -31 65 -119 124
-204 173 -246 224 -345 272 -523 34 -126 33 -180 -1 -207 -30 -23 -80 -27
-106 -8 -9 8 -60 90 -113 183 -155 270 -187 313 -485 650 l-206 232 -117 295
c-115 289 -117 297 -104 329 13 28 47 52 245 166 127 73 255 144 285 158 104
47 211 55 328 25z m1786 -1374 c133 -26 250 -67 267 -96 3 -5 -8 -39 -24 -75
-77 -170 -108 -410 -80 -619 17 -131 71 -335 130 -491 27 -74 50 -137 50 -140
0 -3 -111 -6 -247 -6 -240 0 -247 -1 -270 -22 -15 -14 -23 -33 -23 -54 0 -91
12 -94 343 -94 l274 0 48 -112 c26 -62 50 -119 52 -125 4 -10 -46 -13 -230
-13 -238 0 -278 -5 -303 -38 -22 -28 -17 -86 9 -110 22 -21 31 -22 312 -24
l290 -3 51 -153 c68 -202 85 -289 91 -458 6 -151 -8 -252 -48 -360 l-20 -54
-1062 2 -1062 3 -22 60 c-12 33 -22 70 -22 83 l-1 22 313 0 c337 0 351 2 375
54 16 33 9 70 -19 94 -17 15 -57 18 -357 22 l-337 5 3 85 c2 47 7 103 11 125
l7 40 157 5 c145 5 158 7 179 27 33 33 30 89 -6 119 -25 23 -35 24 -157 24
-79 0 -129 4 -129 10 0 28 123 350 225 589 63 148 138 330 165 404 165 449
182 787 54 1085 -31 70 -34 85 -23 99 30 35 160 76 319 98 132 19 603 14 717
-8z m-2128 -346 c16 -29 -19 -65 -102 -106 -117 -57 -165 -64 -515 -79 -190
-8 -328 -19 -341 -25 -49 -27 -56 -97 -13 -133 26 -21 52 -26 347 -57 726 -75
1059 -116 1157 -142 44 -11 62 -50 35 -77 -36 -36 -390 -82 -902 -117 -411
-29 -419 -30 -439 -88 -14 -38 14 -94 51 -103 26 -7 167 1 551 32 101 8 188
14 194 14 13 0 1 -55 -23 -102 -34 -67 -28 -66 -491 -104 -233 -19 -435 -39
-450 -45 -57 -23 -60 -101 -6 -142 26 -20 27 -20 350 7 383 31 395 31 378 12
-28 -35 -117 -60 -454 -129 -394 -81 -400 -84 -400 -153 0 -41 39 -84 75 -84
11 0 97 16 192 35 94 20 175 34 180 32 14 -4 -61 -52 -170 -107 -125 -65 -213
-84 -352 -78 -95 5 -120 10 -236 53 -197 72 -268 93 -337 104 -48 8 -68 17
-85 36 l-23 26 0 589 0 589 22 25 c32 34 633 305 733 329 11 2 255 5 542 6
503 1 523 0 532 -18z m214 -158 c20 -38 51 -92 68 -122 l31 -54 -49 8 c-26 4
-113 15 -193 24 l-145 17 64 34 c71 38 157 111 166 140 4 11 10 20 14 20 4 0
23 -30 44 -67z m2698 -2726 c46 -35 50 -88 10 -128 l-29 -29 -1137 0 -1137 0
-29 29 c-40 40 -36 93 10 128 23 18 2289 18 2312 0z"/>
<path d="M1940 1703 c-61 -23 -79 -95 -35 -138 24 -25 25 -25 228 -25 230 0
243 3 253 71 5 29 1 41 -19 65 l-25 29 -194 2 c-106 1 -200 -1 -208 -4z"/>
</g>
</svg>
