<?xml version="1.0" encoding="UTF-8"?>
<svg version="1.1" xmlns="http://www.w3.org/2000/svg" width="224" height="225">
<path d="M0 0 C73.92 0 147.84 0 224 0 C224 74.25 224 148.5 224 225 C150.08 225 76.16 225 0 225 C0 150.75 0 76.5 0 0 Z " fill="#FEFEFE" transform="translate(0,0)"/>
<path d="M0 0 C9.65413406 4.25278574 18.37540676 12.8294127 24.5546875 21.2578125 C24.0596875 22.7428125 24.0596875 22.7428125 23.5546875 24.2578125 C17.2846875 24.5878125 11.0146875 24.9178125 4.5546875 25.2578125 C4.5546875 26.2478125 4.5546875 27.2378125 4.5546875 28.2578125 C7.85361128 31.35735077 11.35372345 33.28437351 15.4296875 35.1953125 C19.08114945 36.95375609 22.35779288 38.70422579 25.5546875 41.1953125 C28.21581055 43.51068176 28.21581055 43.51068176 30.4609375 43.03125 C32.78239175 42.17369787 34.87532579 41.11853555 37.0546875 39.9453125 C53.37455318 31.61638697 73.76713118 29.08877904 91.5546875 34.2578125 C92.74835938 34.60328125 93.94203125 34.94875 95.171875 35.3046875 C116.59612159 42.14401718 132.1243575 57.07377334 142.35546875 76.71484375 C151.50177858 96.57345691 151.95597598 117.76514722 144.5546875 138.2578125 C143.10854741 141.59551055 141.42908199 144.76839336 139.59375 147.91015625 C138.41678376 150.13002706 138.41678376 150.13002706 138.578125 152.2265625 C140.02757163 155.24141149 142.25119787 157.4458632 144.5546875 159.8203125 C149.06916124 164.5994354 153.30626436 169.51228071 157.40234375 174.66015625 C159.54542872 177.24663811 161.83433224 179.60555087 164.1796875 182.0078125 C166.79799436 184.96260859 167.49988996 185.86053036 168.0546875 189.8828125 C165.99057603 194.5270633 162.95633758 197.69018329 158.5546875 200.2578125 C156.35766602 200.74829102 156.35766602 200.74829102 153.5546875 200.2578125 C150.93103666 198.34341107 148.74945419 196.03278451 146.50390625 193.6953125 C145.84509964 193.02943115 145.18629303 192.3635498 144.50752258 191.67749023 C142.40705457 189.54904508 140.32463698 187.40387571 138.2421875 185.2578125 C136.82081692 183.81136367 135.39830382 182.36603659 133.97460938 180.921875 C130.48791359 177.38006538 127.01730719 173.82315711 123.5546875 170.2578125 C120.43655341 171.77192472 117.5543613 173.51632147 114.63134766 175.38061523 C106.54199364 180.47488018 98.76591463 183.69375161 89.5546875 186.2578125 C88.79285156 186.50273437 88.03101562 186.74765625 87.24609375 187 C69.18044406 192.14149094 49.06584712 187.06870927 33.07421875 178.3203125 C28.51031926 175.70201822 24.44155459 172.8113169 20.5546875 169.2578125 C19.66265625 168.45730469 18.770625 167.65679687 17.8515625 166.83203125 C3.98413176 153.74132819 -5.67987385 134.96839639 -6.81640625 115.671875 C-7.2926791 97.17981332 -3.46176071 77.25218747 9.3671875 63.08984375 C11.81874274 60.58652549 11.81874274 60.58652549 11.35418701 58.26091003 C9.98397806 54.82793462 7.13760791 52.56378432 4.5078125 50.05859375 C3.25769945 48.83670419 2.00770325 47.61469508 0.7578125 46.39257812 C-1.21162688 44.48498931 -3.18431731 42.580891 -5.16015625 40.67993164 C-21.11865135 25.28134853 -21.11865135 25.28134853 -23.07421875 16.40234375 C-22.91767113 10.90475961 -22.28107076 7.49733479 -18.4453125 3.2578125 C-12.87385139 -1.78303326 -6.99918919 -2.12435455 0 0 Z " fill="#050505" transform="translate(39.4453125,12.7421875)"/>
<path d="M0 0 C3.67193267 1.50855925 5.76153951 3.61234831 8.3125 6.625 C9.03050781 7.44226563 9.74851562 8.25953125 10.48828125 9.1015625 C13.3350417 14.55969235 11.04010328 20.54078091 9.28808594 26.13793945 C-1.53635996 58.57849788 -22.75879217 83.84032726 -53.33984375 99.25 C-63.81925969 104.34764692 -80.06162775 112.18206141 -92 109 C-96.97567674 105.87817821 -100.13651232 102.08576494 -103 97 C-102.40799805 96.94577881 -101.81599609 96.89155762 -101.20605469 96.83569336 C-75.86033385 94.37681659 -54.1470648 87.35633212 -35 70 C-34.51289551 69.56204102 -34.02579102 69.12408203 -33.52392578 68.67285156 C-13.11332416 50.0915329 -4.30755237 26.75216733 0 0 Z " fill="#F9F9F9" transform="translate(159,71)"/>
<path d="M0 0 C9.93938182 3.16765001 9.93938182 3.16765001 13 7 C16.71877236 20.9017195 7.81550575 41.62660014 1 53.625 C-4.01741128 62.00105155 -10.12453108 69.10535264 -17 76 C-17.85207031 76.87527344 -18.70414062 77.75054687 -19.58203125 78.65234375 C-34.67618364 93.33915769 -56.14203381 102.10382126 -77 104 C-78.423125 104.20109375 -78.423125 104.20109375 -79.875 104.40625 C-83.18238462 104.69807805 -85.76788441 104.78679439 -89 104 C-92.62049069 100.34592405 -95 96.19322829 -95 91 C-93.90945312 90.97421875 -92.81890625 90.9484375 -91.6953125 90.921875 C-69.64978831 90.18620129 -49.31413686 85.27656899 -32 71 C-31.22269531 70.38511719 -30.44539063 69.77023438 -29.64453125 69.13671875 C-11.72801025 54.24226153 -2.85892484 32.30829156 -0.75 9.625 C-0.47773235 6.41807996 -0.22610425 3.2104965 0 0 Z " fill="#F9F9F9" transform="translate(140,58)"/>
<path d="M0 0 C5.94 1.485 5.94 1.485 12 3 C12.64550248 27.56495549 5.87985296 48.65961088 -10.69946289 66.91479492 C-13.56260232 69.91407032 -16.01173886 71.80425077 -20 73 C-20.73502414 46.67524643 -16.17265364 21.56353819 0 0 Z " fill="#F8F8F8" transform="translate(122,52)"/>
<path d="M0 0 C1.46373047 0.01353516 1.46373047 0.01353516 2.95703125 0.02734375 C4.06111328 0.04474609 4.06111328 0.04474609 5.1875 0.0625 C3.88992084 3.58925362 2.26717703 6.80085085 0.4206543 10.07080078 C-9.54873358 27.86812503 -11.90152571 46.06399394 -13.8125 66.0625 C-20.30792433 60.15756879 -28.37030196 51.00930119 -29.0390625 42.015625 C-28.75677584 37.09020948 -27.62817879 32.72095896 -26.25 28 C-25.84890015 26.61977661 -25.84890015 26.61977661 -25.43969727 25.21166992 C-19.31576388 4.95938923 -19.31576388 4.95938923 -13.41015625 1.76171875 C-8.82162792 0.52661113 -4.76643614 -0.05742694 0 0 Z " fill="#F8F8F8" transform="translate(109.8125,50.9375)"/>
<path d="M0 0 C0.12528076 0.54301758 0.25056152 1.08603516 0.37963867 1.64550781 C2.82257886 12.11746729 5.24293167 22.29558061 10 32 C10.51304688 33.06476563 11.02609375 34.12953125 11.5546875 35.2265625 C15.88278316 43.74313783 21.12040065 51.69254798 28.33203125 58.05859375 C30 60 30 60 30.06640625 62.078125 C28.54981565 64.81132124 26.75316028 65.4669143 23.9375 66.75 C23.01839844 67.17796875 22.09929687 67.6059375 21.15234375 68.046875 C20.44207031 68.36140625 19.73179688 68.6759375 19 69 C4.17046354 55.81818981 -8.59995865 33.65108644 -12 14 C-11.75183768 9.3700002 -9.83567197 7.34545631 -6.5625 4.1875 C-5.75941406 3.39730469 -4.95632812 2.60710937 -4.12890625 1.79296875 C-2 0 -2 0 0 0 Z " fill="#F8F8F8" transform="translate(67,67)"/>
<path d="M0 0 C2.09676623 0.47881819 4.04511548 0.67795549 6.19091797 0.79174805 C7.32207031 0.85458984 7.32207031 0.85458984 8.47607422 0.91870117 C9.64203125 0.97767578 9.64203125 0.97767578 10.83154297 1.0378418 C12.02070313 1.10261719 12.02070313 1.10261719 13.23388672 1.16870117 C15.18292112 1.27437171 17.13221045 1.37532146 19.08154297 1.4753418 C18.25985229 7.26775386 15.72840813 10.94542954 11.08154297 14.4753418 C7.61516488 15.46573554 4.61015246 15.034469 1.08154297 14.4753418 C-0.10310547 14.29100586 -1.28775391 14.10666992 -2.50830078 13.91674805 C-10.29861925 12.51686341 -17.59627616 10.47423916 -24.91845703 7.4753418 C-23.7553454 6.278021 -22.58508128 5.08696988 -21.38330078 3.9284668 C-19.97337174 2.52981719 -18.6614789 1.03441564 -17.35595703 -0.4621582 C-12.51961991 -4.51558958 -5.48144411 -1.49906126 0 0 Z " fill="#F5F5F5" transform="translate(152.91845703125,156.524658203125)"/>
<path d="M0 0 C0.66 0 1.32 0 2 0 C2.17321659 11.37455617 2.17321659 11.37455617 1.5 16.125 C0.90357487 20.76859566 0.88637136 25.38792519 0.875 30.0625 C0.87048828 30.81869629 0.86597656 31.57489258 0.86132812 32.35400391 C0.87430843 37.32438018 1.34903865 42.07422161 2 47 C2.10694151 50.01147306 2.04711338 52.98474382 2 56 C-0.97 56 -3.94 56 -7 56 C-11.8966084 42.40701508 -11.05472913 23.09601158 -5 10 C-4.54496094 9.01386719 -4.08992188 8.02773437 -3.62109375 7.01171875 C-2.46894358 4.63848634 -1.27249544 2.31030935 0 0 Z " fill="#F6F6F6" transform="translate(49,86)"/>
<path d="M0 0 C2.5505617 2.5505617 2.82325272 4.58719772 3.75 8.0625 C5.6226633 14.42955523 8.23877105 20.23877105 13 25 C12.28 31.72 12.28 31.72 11 33 C5.8482134 33.73052461 1.13315153 33.94315561 -4 33 C-7.19770107 30.13459836 -8.66631994 27.04234886 -10 23 C-10.29777344 22.21109375 -10.59554687 21.4221875 -10.90234375 20.609375 C-11.0514171 16.62613513 -8.89430562 14.06684993 -6.6875 10.9375 C-3.02042031 5.65974788 -3.02042031 5.65974788 0 0 Z " fill="#F9F9F9" transform="translate(165,119)"/>
<path d="M0 0 C2.47638396 3.21469012 4.33703477 6.44508223 6.1875 10.0625 C10.32953886 17.85618835 15.26863946 24.85972242 21 31.5625 C23 34 23 34 23 36 C15.82140651 38.04061541 9.47394574 39.37369729 2 39 C0.02490234 30.38149325 -0.2438341 22.1290761 -0.125 13.3125 C-0.11597656 12.02666016 -0.10695312 10.74082031 -0.09765625 9.41601562 C-0.0743189 6.27714268 -0.04158033 3.13867524 0 0 Z " fill="#F9F9F9" transform="translate(56,103)"/>
<path d="M0 0 C0.9075 0.28359375 1.815 0.5671875 2.75 0.859375 C4.34169839 1.38685644 5.92799129 1.93207631 7.5 2.515625 C15.22938144 5.35375725 23.33955911 6.4390819 31.4375 7.75 C24.60514594 14.89732073 16.93772984 19.13399468 7.4375 21.75 C5.68346279 19.7116878 3.93425027 17.66954231 2.1875 15.625 C1.69636719 15.05523437 1.20523438 14.48546875 0.69921875 13.8984375 C-2.33830009 10.33441539 -5.23247189 6.8217818 -7.5625 2.75 C-7.2325 1.76 -6.9025 0.77 -6.5625 -0.25 C-3.85856768 -1.60196616 -2.84468182 -0.90816133 0 0 Z " fill="#F7F7F7" transform="translate(125.5625,169.25)"/>
<path d="M0 0 C3.01410077 1.75032686 4.59085514 4.58551112 6.42578125 7.45703125 C8.69881602 10.93299093 10.90335974 14.15047959 13.86328125 17.08203125 C13.86328125 17.74203125 13.86328125 18.40203125 13.86328125 19.08203125 C7.52369963 21.19522512 -0.60845314 21.87407436 -7.13671875 20.08203125 C-11.05515844 16.63855395 -13.22465406 12.90899177 -15.13671875 8.08203125 C-15.13671875 7.42203125 -15.13671875 6.76203125 -15.13671875 6.08203125 C-13.06045305 5.04689878 -10.97540396 4.02936914 -8.88671875 3.01953125 C-7.7265625 2.45105469 -6.56640625 1.88257813 -5.37109375 1.296875 C-2.13671875 0.08203125 -2.13671875 0.08203125 0 0 Z " fill="#F9F9F9" transform="translate(112.13671875,173.91796875)"/>
<path d="M0 0 C0.66 0 1.32 0 2 0 C7.36901973 12.48776464 7.94047806 27.7641491 5 41 C-0.34537917 36.80005922 -1.92693544 30.21919367 -4 24 C-4.76628425 15.15632603 -3.62816522 8.08238591 0 0 Z " fill="#F0F0F0" transform="translate(176,97)"/>
<path d="M0 0 C0.66 0.33 1.32 0.66 2 1 C1.60167969 1.96679688 1.20335938 2.93359375 0.79296875 3.9296875 C-2.17420703 11.19805287 -4.9624508 18.40387361 -7 26 C-11.26429585 19.60355623 -11.27018742 13.46017494 -11 6 C-9.54195831 5.18697675 -8.08355685 4.37459869 -6.625 3.5625 C-5.40683594 2.88380859 -5.40683594 2.88380859 -4.1640625 2.19140625 C-2.79003378 1.4349464 -1.40290739 0.70145369 0 0 Z " fill="#F2F2F2" transform="translate(84,56)"/>
<path d="M0 0 C1.80078125 1.96875 1.80078125 1.96875 3.3125 4.5 C3.82425781 5.3353125 4.33601563 6.170625 4.86328125 7.03125 C5.23839844 7.6809375 5.61351563 8.330625 6 9 C2.05192049 10.3160265 -0.35302963 9.04388185 -4.0625 7.625 C-4.69994141 7.39039063 -5.33738281 7.15578125 -5.99414062 6.9140625 C-8.38040675 6.02895641 -10.72201482 5.13899259 -13 4 C-13 3.34 -13 2.68 -13 2 C-3.70057986 -0.52187665 -3.70057986 -0.52187665 0 0 Z " fill="#EAEAEA" transform="translate(91,183)"/>
<path d="M0 0 C0.99 0.33 1.98 0.66 3 1 C3.6875 3.0625 3.6875 3.0625 4 5 C1.69 4.67 -0.62 4.34 -3 4 C-2.01 2.68 -1.02 1.36 0 0 Z " fill="#E4E4E4" transform="translate(148,145)"/>
</svg>